<svg id="_图层_1" data-name="图层 1" xmlns="http://www.w3.org/2000/svg" xmlns:xlink="http://www.w3.org/1999/xlink" viewBox="0 0 256 256" width="128" height="128" style="font-size: 128px;">
  <defs>
    <style>
      .cls-1 {
        fill: none;
      }

      .cls-1, .cls-2 {
        stroke-width: 0px;
      }

      .cls-2 {
        fill: #333;
      }

      .cls-3 {
        clip-path: url(#clippath);
      }
    </style>
    <clipPath id="clippath">
      <rect class="cls-1" y="0" width="256" height="256"></rect>
    </clipPath>
  </defs>
  <g class="cls-3">
    <g id="_å_ç_å_å__10742006515.ç_æ_·" data-name="åçº¿å¡«å_10742006515.ç¨æ·">
      <g id="Group">
        <g id="Group_2" data-name="Group 2">
          <g id="Group_3" data-name="Group 3">
            <path id="Vector" class="cls-2" d="m234.14,176.68c-1.36-2.61-4.11-4.21-7.05-4.1-2.95.11-5.57,1.9-6.74,4.6-1.17,2.71-.68,5.84,1.26,8.06,11.11,16.44,17.65,35.53,18.95,55.33H15.28c2.89-41.07,27.85-77.33,65.18-94.68,3.84-1.77,5.52-6.32,3.74-10.16-1.77-3.84-6.32-5.52-10.16-3.74C28.91,153.08.05,198.38,0,248.21c0,4.22,3.42,7.64,7.64,7.64h240.72c4.22,0,7.64-3.42,7.64-7.64.04-25.49-7.58-50.41-21.86-71.53Z"></path>
          </g>
          <g id="Group_4" data-name="Group 4">
            <path id="Vector_2" data-name="Vector 2" class="cls-2" d="m128,135.49c28.55.06,56.01,10.99,76.8,30.57,1.95,2.09,4.9,2.91,7.65,2.13,2.75-.77,4.84-3.01,5.41-5.81.58-2.8-.45-5.68-2.67-7.48-23.68-22.1-54.88-34.37-87.27-34.31-24.9.04-46.4-17.41-51.48-41.78-5.08-24.37,7.66-48.96,30.49-58.87,22.84-9.91,49.5-2.42,63.83,17.94,14.33,20.36,12.39,47.98-4.64,66.14-2.89,3.08-2.74,7.92.34,10.81,3.08,2.89,7.92,2.74,10.81-.34,22.03-23.45,24.56-59.15,6.06-85.48C164.85,2.67,130.41-7.04,100.88,5.74c-29.53,12.78-46.02,44.54-39.5,76.05,6.53,31.51,34.29,54.1,66.46,54.09l.15-.38Z"></path>
          </g>
        </g>
      </g>
    </g>
  </g>
</svg>